HIERARCHY
ROOT pelvis
{
  OFFSET 0 100 0
  CHANNELS 6 Xposition Yposition Zposition Zrotation Xrotation Yrotation
  JOINT pelvis_right_femur
  {
    OFFSET -10.78128 -3.44521 -0.5502486
    CHANNELS 3 Zrotation Xrotation Yrotation
    JOINT right_femur_tibia
    {
      OFFSET -0.8047443 -44.0398 -0.1307829
      CHANNELS 3 Zrotation Xrotation Yrotation
      JOINT right_tibia_foot
      {
        OFFSET 3.006224 -47.83518 -5
        CHANNELS 3 Zrotation Xrotation Yrotation
        End Site
        {
          OFFSET 0 -5 15
        }
      }
    }
  }
  JOINT pelvis_left_femur
  {
    OFFSET 10.78128 -3.44521 -0.5502486
    CHANNELS 3 Zrotation Xrotation Yrotation
    JOINT left_femur_tibia
    {
      OFFSET 0.8047443 -44.0398 -0.1307829
      CHANNELS 3 Zrotation Xrotation Yrotation
      JOINT left_tibia_foot
      {
        OFFSET -4.370144 -48.10324 -4.275266
        CHANNELS 3 Zrotation Xrotation Yrotation
        End Site
        {
          OFFSET 0 -5 15
        }
      }
    }
  }
  JOINT pelvis_spine1
  {
    OFFSET 0 6.468898 -3.129235
    CHANNELS 3 Zrotation Xrotation Yrotation
    JOINT spine1
    {
      OFFSET 0 23.15396 4.99043
      CHANNELS 3 Zrotation Xrotation Yrotation
      JOINT spine2
      {
        OFFSET 0 20.79997 -5.064912
        CHANNELS 3 Zrotation Xrotation Yrotation
        JOINT neck
        {
          OFFSET 0 14.38658 9.616178
          CHANNELS 3 Zrotation Xrotation Yrotation
          End Site
          {
            OFFSET 0 20 0
          }
        }
      }
      JOINT right_manubrium
      {
        OFFSET -5.722621 16.35077 3.967754
        CHANNELS 3 Zrotation Xrotation Yrotation
        JOINT right_clavicle
        {
          OFFSET -13.16364 1.694482 -4.693211
          CHANNELS 3 Zrotation Xrotation Yrotation
          JOINT right_humerus
          {
            OFFSET -28.5034 -0.3100689 -2.792744
            CHANNELS 3 Zrotation Xrotation Yrotation
            JOINT right_radius
            {
              OFFSET -25.15693 0.02248979 -1.271978
              CHANNELS 3 Zrotation Xrotation Yrotation
              End Site
              {
                OFFSET -15 0 0
              }
            }
          }
        }
      }
      JOINT left_manubrium
      {
        OFFSET 5.722621 16.35077 3.967754
        CHANNELS 3 Zrotation Xrotation Yrotation
        JOINT left_clavicle
        {
          OFFSET 13.16364 1.694482 -4.693211
          CHANNELS 3 Zrotation Xrotation Yrotation
          JOINT left_humerus
          {
            OFFSET 29.39168 -1.063119 -2.237045
            CHANNELS 3 Zrotation Xrotation Yrotation
            JOINT left_radius
            {
              OFFSET 24.59957 -0.9528479 0.9047498
              CHANNELS 3 Zrotation Xrotation Yrotation
              End Site
              {
                OFFSET 15 -0 -0
              }
            }
          }
        }
      }
    }
  }
}
MOTION
Frames: 21
Frame Time: 0.0416666666667
0 103.5113 0 1.761699 -2.734729 0.1930052 0.7991604 -10.00985 7.815977 -0 40.98181 -0 -6.20774 -15.68253 -3.926076 -7.017524 12.43844 -25.04042 -0 4.253777 -0 0.3515666 -18.8039 24.24186 -1.389355 -1.022106 2.593274 2.318589 6.156709 -7.663071 1.216262 23.28873 7.611049 3.914749 -24.70036 8.937531 5.015338 -17.83128 10.53701 88.59702 35.39918 -22.95429 -0 0 13.7186 -6.31476 8.229678 3.459575 4.723976 -19.21987 -2.9281 -100.26 41.84054 28.13771 0 0 -23.08321 -10.24012 17.70945 28.50355
0.1909699 103.5491 1.339239 1.530875 -2.01396 0.2976387 1.169172 -12.5326 8.468274 -0 41.73349 -0 -5.612691 -15.2587 -4.170179 -6.938934 13.02566 -25.52448 -0 4.46866 -0 -0.8108612 -20.23095 24.05264 -1.383437 -1.018562 2.594704 2.316335 6.204072 -7.684658 1.201534 23.25162 7.636175 3.931786 -24.66099 8.92128 5.022012 -17.78826 10.55286 88.64553 35.42806 -23.01584 -0 0 13.62886 -6.504942 8.363029 3.544804 4.749411 -19.28509 -2.948626 -100.0018 41.67302 27.86681 0 0 -23.16464 -10.12484 17.64933 28.34778
0.3392907 103.4268 2.868738 0.6683369 -1.625538 0.3632742 2.579717 -17.77179 7.73071 -0 40.24102 -0 -6.222107 -12.224 -3.744494 -6.259631 13.05899 -24.632 -0 5.486214 -0 -1.395137 -21.90627 23.12012 -1.709261 -0.8374698 2.998799 2.328935 6.808159 -7.640955 0.9457596 22.89097 7.652394 4.105833 -24.07264 8.318777 5.68131 -17.40217 10.96435 87.35766 36.32272 -21.65575 -0 0 13.19776 -8.71985 9.256657 5.275716 4.67752 -19.39212 -3.024353 -97.00277 38.54501 25.07015 0 0 -22.32186 -7.548117 16.44708 24.792
0.4782626 103.1593 4.597236 0.0854032 -0.8058752 0.4206938 3.640595 -22.17015 7.270511 -0 37.43954 -0 -6.123456 -10.6089 -3.42529 -5.890237 12.95039 -23.67481 -0 5.791529 -0 -1.351394 -23.0983 22.31785 -1.785221 -0.7841072 3.036276 2.400099 6.982041 -7.724385 0.8687403 22.70593 7.6601 4.153339 -23.94963 8.16465 5.927495 -17.2141 11.06369 87.16416 36.47067 -21.60339 -0 0 13.00672 -8.961785 9.337005 5.623908 4.722537 -19.46129 -3.11116 -96.06077 37.66515 24.07962 0 0 -22.38267 -6.766001 15.91333 23.74093
0.6247649 102.7046 6.63806 -0.4321453 0.4259225 0.4851625 4.695943 -26.98081 6.722559 -0 32.84208 -0 -5.716896 -9.211762 -3.078416 -5.629534 12.88121 -22.42188 -0 5.879035 -0 -0.9743276 -24.30664 21.32923 -1.830997 -0.7418885 3.016241 2.495384 7.130654 -7.853628 0.8030101 22.49821 7.680531 4.198594 -23.87475 8.054735 6.154918 -17.00549 11.13231 87.13765 36.54959 -21.78956 -0 0 12.77567 -8.985302 9.355846 5.833759 4.80924 -19.56633 -3.221388 -95.18054 36.92982 23.0895 0 0 -22.65385 -6.083075 15.37652 22.84173
0.7849761 102.0467 9.109699 -0.7838253 1.657342 0.5865836 5.473059 -31.06281 5.894055 -0 27.33265 -0 -5.39853 -7.748632 -2.65776 -5.490878 13.02585 -21.03023 -0 6.052445 -0 -0.5161209 -25.24415 20.19471 -1.842563 -0.7172283 2.946174 2.596543 7.232076 -8.004188 0.7577677 22.29723 7.713278 4.238876 -23.85436 8.002813 6.334045 -16.80811 11.16128 87.26102 36.56787 -22.16134 -0 0 12.54359 -8.82185 9.333303 5.892455 4.926163 -19.69064 -3.333891 -94.46873 36.43654 22.229 0 0 -23.08484 -5.58643 14.92548 22.21023
0.9527708 101.2134 12.14667 -1.019182 2.809381 0.7625454 5.99321 -34.25674 4.803567 -0 21.53849 -0 -5.303783 -5.940895 -2.170301 -5.419787 13.52227 -19.55788 -0 6.646622 -0 -0.3402963 -25.83145 18.79528 -1.843019 -0.697604 2.872081 2.690034 7.333677 -8.153952 0.7179071 22.09458 7.752922 4.280685 -23.83704 7.962566 6.48686 -16.61642 11.1826 87.41824 36.5797 -22.55592 -0 0 12.29535 -8.709239 9.355402 5.952952 5.051116 -19.83502 -3.444364 -93.76627 35.94676 21.37394 0 0 -23.56013 -5.115692 14.49042 21.61605
1.112762 100.2858 15.84829 -1.21999 3.708534 1.04745 6.36641 -36.15415 3.651998 -0 16.58229 -0 -5.56035 -3.815724 -1.673157 -5.332842 14.35666 -18.10126 -0 8.109836 -0 -0.7193188 -25.75332 17.11563 -1.843335 -0.6788329 2.821423 2.762307 7.446264 -8.278888 0.680467 21.91002 7.790149 4.32025 -23.80197 7.916143 6.608118 -16.4473 11.20936 87.54366 36.60036 -22.86317 -0 0 12.04909 -8.74967 9.444634 6.07179 5.158186 -19.98261 -3.541078 -93.08654 35.40707 20.56687 0 0 -23.97278 -4.651352 14.08194 21.02008
1.249763 99.407 20.25981 -1.507712 4.255821 1.450267 6.833985 -36.57827 2.771518 -0 13.38536 -0 -6.16914 -1.671175 -1.253277 -5.129676 15.30409 -16.7027 -0 10.98538 -0 -1.755928 -24.65505 15.19546 -1.852548 -0.6570995 2.818795 2.800489 7.578443 -8.357068 0.6429506 21.76673 7.81601 4.352184 -23.72936 7.848743 6.689489 -16.31741 11.25313 87.58552 36.63527 -22.98977 -0 0 11.82318 -9.029085 9.614209 6.292735 5.221165 -20.11667 -3.614002 -92.45848 34.78602 19.86295 0 0 -24.21884 -4.192516 13.71577 20.40761
1.361478 98.76141 25.34068 -1.95679 4.38582 1.920065 7.556681 -35.4878 2.439032 -0 12.41451 -0 -7.007306 -0.06896705 -1.012993 -4.750894 15.90312 -15.39016 -0 15.78926 -0 -3.299765 -22.28059 13.20923 -1.876336 -0.6304356 2.881675 2.793407 7.728651 -8.369279 0.6056897 21.68906 7.822762 4.370109 -23.60835 7.754614 6.720887 -16.24586 11.31912 87.50779 36.68018 -22.86767 -0 0 11.64815 -9.58488 9.857228 6.630451 5.218258 -20.2159 -3.65321 -91.94063 34.10452 19.34368 0 0 -24.21091 -3.770003 13.41986 19.81104
1.46649 98.52437 30.95894 -2.510898 4.067075 2.334555 8.41408 -32.9477 2.626748 -0 13.31046 -0 -7.87495 0.41043 -1.0218 -4.23092 15.56624 -14.16798 -0 22.80487 -0 -5.033643 -18.68551 11.3873 -1.915958 -0.5987515 3.017975 2.733302 7.89035 -8.304089 0.5710686 21.68957 7.807612 4.370497 -23.43593 7.636441 6.695237 -16.247 11.40591 87.29411 36.72759 -22.46611 -0 0 11.55625 -10.42067 10.16392 7.081356 5.141303 -20.26381 -3.652068 -91.57899 33.40457 19.06986 0 0 -23.90861 -3.41992 13.21487 19.27836
1.59642 98.79615 36.91072 -2.968075 3.307133 2.541619 9.024775 -29.09229 2.996998 -0 15.00308 -0 -8.58163 -0.5296043 -1.264541 -3.695399 13.78158 -13.03984 -0 31.77036 -0 -6.652137 -14.35526 9.917526 -1.968232 -0.5637467 3.225249 2.617191 8.055891 -8.160506 0.5428296 21.76187 7.774617 4.354866 -23.21619 7.504169 6.611268 -16.32576 11.50602 86.94797 36.7721 -21.79529 -0 0 11.57166 -11.51939 10.5333 7.632878 5.000049 -20.25536 -3.608673 -91.38301 32.72225 19.05387 0 0 -23.33433 -3.163314 13.10165 18.84712
1.772199 99.55716 42.96958 -3.081307 2.16832 2.444856 9.020838 -24.14352 3.139296 -0 16.24034 -0 -9.04372 -2.649331 -1.602278 -3.28249 10.32168 -11.99417 -0 41.71134 -0 -7.924687 -10.06905 8.919949 -2.027465 -0.5275969 3.49523 2.446026 8.222371 -7.94641 0.5244088 21.88197 7.734068 4.32933 -22.95477 7.370739 6.473109 -16.47639 11.60962 86.48618 36.81164 -20.894 -0 0 11.70273 -12.86989 10.98113 8.2781 4.818013 -20.19938 -3.526113 -91.31653 32.05967 19.25117 0 0 -22.56066 -2.991811 13.05348 18.52164
1.985161 100.6712 48.94324 -2.711793 0.7893586 2.06977 8.329417 -18.457 2.858174 -0 16.20496 -0 -9.286608 -5.207575 -1.823126 -3.0456 5.344662 -10.97578 -0 51.03992 -0 -8.62108 -6.592216 8.511595 -2.089009 -0.4911154 3.821752 2.222079 8.393177 -7.671869 0.5179812 22.01822 7.698437 4.301137 -22.65403 7.2481 6.288361 -16.68823 11.70832 85.92315 36.84405 -19.80163 -0 0 11.94992 -14.47851 11.53139 9.022856 4.621414 -20.10983 -3.409964 -91.31783 31.38226 19.58833 0 0 -21.67061 -2.870999 13.02009 18.27246
2.20354 101.9267 54.70889 -1.915688 -0.6313921 1.547126 7.20781 -12.49407 2.261406 -0 14.80135 -0 -9.366916 -7.357128 -1.773917 -2.902049 -0.6583601 -9.881007 -0 57.96025 -0 -8.515221 -4.379767 8.821403 -2.152389 -0.4528437 4.207757 1.945834 8.573357 -7.34032 0.5252818 22.14264 7.676588 4.274504 -22.31314 7.145526 6.06609 -16.95677 11.79656 85.2506 36.8629 -18.52549 -0 0 12.32816 -16.35856 12.19778 9.882372 4.428343 -19.98969 -3.263546 -91.33634 30.64176 20.01202 0 0 -20.71531 -2.75771 12.94176 18.05633
2.399001 103.084 60.21688 -0.9138093 -1.895611 1.029223 6.04915 -6.719693 1.624015 -0 12.51453 -0 -9.29818 -8.674337 -1.462035 -2.654015 -7.021418 -8.612694 -0 60.97345 -0 -7.568364 -3.459972 9.898447 -2.221278 -0.4102242 4.666159 1.614784 8.761365 -6.944045 0.5496674 22.236 7.669853 4.248649 -21.93336 7.070736 5.814828 -17.29247 11.86943 84.42768 36.85512 -17.02658 -0 0 12.88607 -18.50529 12.96887 10.86939 4.245569 -19.81964 -3.084094 -91.36109 29.80857 20.52555 0 0 -19.70071 -2.620622 12.76586 17.84366
2.571066 103.9156 65.47962 0.006451882 -2.866449 0.6135115 5.173023 -1.484475 1.183461 -0 10.03991 -0 -9.034341 -9.38268 -1.030924 -2.069559 -13.09042 -7.134802 -0 59.28932 -0 -6.060353 -3.504315 11.60087 -2.299588 -0.3623726 5.212928 1.225805 8.9437 -6.46902 0.5971809 22.28428 7.672938 4.219263 -21.52412 7.032035 5.540532 -17.71969 11.91901 83.39507 36.79989 -15.24101 -0 0 13.7026 -20.87531 13.80828 11.98078 4.074633 -19.56271 -2.863762 -91.41925 28.89018 21.18351 0 0 -18.6146 -2.451854 12.45642 17.63509
2.753878 104.2437 70.56301 0.5921187 -3.49011 0.315489 4.734908 3.044084 1.020356 -0 7.943875 -0 -8.508741 -10.09762 -0.6465919 -0.9886463 -18.36288 -5.479541 -0 53.06113 -0 -4.475142 -4.005406 13.58539 -2.386143 -0.3129247 5.854459 0.7811683 9.096255 -5.908449 0.6748665 22.27222 7.679131 4.181881 -21.10495 7.039401 5.246147 -18.26326 11.93278 82.11258 36.66898 -13.13375 -0 0 14.8558 -23.37856 14.66766 13.18718 3.92171 -19.18379 -2.596143 -91.54836 27.9284 22.04705 0 0 -17.47271 -2.266147 11.99756 17.45901
3.003124 103.9769 75.58062 0.7056289 -3.792365 0.08020573 4.717606 6.88763 1.063907 -0 6.518974 -0 -7.704035 -11.36357 -0.4048612 0.5730618 -22.5327 -3.757278 -0 43.42716 -0 -3.274276 -4.483983 15.43018 -2.471988 -0.27056 6.574554 0.2957725 9.192864 -5.278054 0.7863421 22.18356 7.686037 4.134476 -20.70091 7.102496 4.934536 -18.9274 11.89699 80.60367 36.43177 -10.75909 -0 0 16.37253 -25.88386 15.50207 14.42877 3.802113 -18.67395 -2.285619 -91.76421 26.98224 23.12767 0 0 -16.34625 -2.091473 11.39697 17.35356
3.372492 103.133 80.68368 0.3804857 -3.869552 -0.1860091 4.936857 10.20975 1.175247 -0 5.861951 -0 -6.699699 -13.30461 -0.3096896 2.342668 -25.45909 -2.21201 -0 32.32903 -0 -2.751076 -4.667421 16.81613 -2.542968 -0.2447799 7.327958 -0.1989212 9.219278 -4.623388 0.9268015 22.01209 7.697523 4.077607 -20.33215 7.224996 4.614487 -19.67574 11.80571 78.98312 36.06629 -8.293297 -0 0 18.17981 -28.23651 16.27732 15.61988 3.733877 -18.06635 -1.955354 -92.04418 26.10784 24.35043 0 0 -15.34525 -1.957068 10.68943 17.34365
3.894551 101.8401 86.04375 -0.1691059 -3.862422 -0.5723199 5.070193 13.21729 1.245611 -0 6.081679 -0 -5.659594 -15.47564 -0.3015311 3.795237 -27.12755 -1.238613 -0 22.08531 -0 -2.966071 -4.579912 17.65845 -2.586234 -0.2379201 8.044781 -0.6584565 9.18646 -4.012593 1.081214 21.77676 7.720277 4.01265 -20.00371 7.398395 4.306535 -20.42432 11.6709 77.44838 35.57317 -6.014703 -0 0 20.08489 -30.28231 16.96717 16.66162 3.724601 -17.43478 -1.648906 -92.33323 25.3471 25.55625 0 0 -14.56643 -1.884444 9.935485 17.42693
